Patient4_TMGait_0pt6_01_right_41_EMG.mot
version=1
nRows=23
nColumns=33
inDegrees=no
endheader
time	1LAddLong	2LGlutMax	3LGlutMed	4LIliopsoas	5LSemiMemb	6LBicFemLong	7LRecFem	8LVastMed	9LVastLat	10LGasMed	11LTibAnt	12lTibPost	13LPeroneusLong	14LSol	15LExtDigLong	16LFlexDigLong	17RAddLong	18RGlutMax	19RGlutMed	20RIliopsoas	21RSemiMemb	22RBicFemLong	23RRecFem	24RVastMed	25RVastLat	26RGasMed	27RTibAnt	28RTibPost	29RPeroneusLong	30RSol	31RExtDigLong	32RFlexDigLong
49.3	0.005646	-0.089874	-0.061951	0.030212	-0.011597	0.011444	0.074615	-0.023651	0.13748	-0.027008	-0.038757	0.008087	-0.20538	0.24887	-0.21225	-0.006714	-0.067596	-0.14175	0.26398	-0.019073	-0.07431	0.002136	0.38681	0.2124	0.070648	-0.006714	0.87875	-0.001373	-0.20828	-0.036926	-0.005035	-0.016937
49.301	0.001526	-0.098114	-0.12314	0.01297	-0.077209	-0.081329	0.11261	-0.031891	-0.048676	-0.05249	0.049591	0.000153	-0.38116	0.17502	-0.3981	0.004425	-0.069275	-0.12589	0.035858	-0.032959	-0.10803	0.002899	0.40573	0.14679	0.050812	-0.005798	0.69717	-0.007019	-0.10239	-0.032959	-0.003662	-0.01709
49.302	-0.00412	-0.097656	-0.030518	0.003204	-0.084534	-0.32684	0.16022	-0.020599	-0.14984	-0.043182	-0.058136	0.003357	0.27725	-0.003204	-0.25803	-0.004425	-0.054169	-0.11444	-0.224	-0.044403	-0.12482	0.010529	0.46371	0.18097	0.029297	-0.004425	0.023956	-0.002441	-0.095978	-0.030518	0	-0.010834
49.303	0.00473	-0.11307	-0.045929	0.013123	-0.00885	-0.44311	0.19226	-0.012665	-0.21744	-0.010681	-0.077667	-0.003815	0.65979	-0.074615	-0.23666	-0.013885	-0.016479	-0.11734	-0.13412	-0.086365	-0.16785	0.006409	0.40985	0.14328	0.038452	-0.007477	-0.42862	-0.004883	-0.11261	-0.058899	-0.002594	-0.007935
49.304	-0.011139	-0.099335	-0.06134	0.010681	0.070801	-0.27893	0.22751	-0.013733	-0.14816	0.043945	0.033264	-0.006104	0.046234	-0.18066	-0.20386	-0.00061	0.039063	-0.11307	-0.066986	-0.008087	-0.10178	0.00885	0.34378	0.10544	0.059662	0	-0.23285	-0.002747	-0.14404	-0.096893	-0.000153	-0.00885
49.305	-0.011139	-0.12863	-0.017395	0.016174	0.089874	-0.168	0.25284	-0.007629	-0.17425	0.063019	-0.006714	-0.00061	-0.098877	-0.1358	-0.11414	0.004272	0.09964	-0.12619	-0.063934	0.078125	-0.029907	0.040588	0.29404	0.06424	0.058899	-0.008698	-0.16129	-0.002594	-0.12054	-0.099335	0.002136	-0.003662
49.306	0.001373	-0.16495	0.030365	0.011444	0.083618	-0.084991	0.13397	0.002594	-0.1915	0.058441	-0.08728	0.002289	0.10895	0.075836	-0.14374	0.001831	0.112	-0.16419	-0.095825	0.11673	-0.049286	0.076294	0.2565	0.021057	0.032349	-0.011139	-0.53085	-0.005341	0.024414	-0.1004	0.000305	0.001831
49.307	0.009918	-0.14542	0.070648	-0.010681	0.062714	-0.020905	-0.028229	0.024414	-0.093079	0.030365	-0.054474	0.005188	0.15106	0.13062	-0.47119	-0.005341	0.15106	-0.11765	-0.074005	0.029144	0.26001	0.055847	0.22934	-0.014496	0.028839	-0.013428	-0.56732	-0.005646	0.15198	-0.11032	0.001526	0.005188
49.308	0.007782	-0.13489	0.037842	-0.039978	0.038147	-0.027771	-0.03891	0.020294	-0.041809	0.008392	-0.035553	0.010071	0.25421	0.018768	0.33112	0.001526	0.17181	-0.08667	0.001373	-0.007019	0.077209	0.081024	0.24338	-0.074921	0.025024	0.015411	-0.4837	-0.003357	0.09201	-0.08316	0.001373	0.006104
49.309	0.002136	-0.13748	0.009308	-0.039978	0.013733	0.005341	-0.020905	0.025635	-0.12466	-0.010376	0.076752	-0.000305	0.44098	-0.05188	0.7193	-0.007935	0.19241	-0.068817	0.029449	-0.037231	-0.020752	0.083771	0.22018	-0.12344	-0.018463	0.03479	-0.51117	-0.005341	0.10788	-0.075226	-0.000305	0.00946
49.31	0.001068	-0.11673	0.15259	-0.044556	0.003052	0.007782	-0.045471	0.021057	-0.1831	-0.053406	0.19928	-0.006104	0.41077	-0.16434	-0.087738	0.005798	0.1384	-0.039215	0.061646	-0.059509	-0.071106	0.037079	0.22583	-0.14999	-0.04303	0.033875	-0.016174	-0.007935	0.14908	-0.050812	-0.002594	0.004272
49.311	-0.003357	-0.1326	0.11871	-0.01709	0.012207	0.019989	-0.065002	0.016174	-0.08194	-0.043182	0.24536	0.004272	-0.18051	-0.1767	-0.054169	-0.000305	0.062256	-0.056458	0.049133	-0.003967	-0.15564	-0.024872	0.20065	-0.14282	-0.045929	0.023041	0.30838	-0.005646	-0.20813	-0.023651	-0.008392	0.006256
49.312	0.006866	-0.16083	0.11154	-0.025177	0.015869	0.062408	-0.011597	0.007782	0.036469	-0.006409	0.25635	0.006104	-0.75958	-0.082703	-0.12344	-0.000458	-0.047607	-0.081024	0.028381	0.035095	-0.13428	-0.050201	0.11566	-0.075226	-0.032501	0.000458	0.5629	-0.004883	-0.38803	0.049896	-0.003204	-0.005798
49.313	0.007477	-0.11948	0.029602	-0.022125	0.017242	0.10071	-0.031433	0.002289	0.12421	0.027466	0.11154	0.006256	-0.090027	0.14221	-0.025635	-0.00946	-0.12955	-0.05661	-0.022888	0.031128	-0.12146	-0.086975	0.076294	-0.02182	-0.037842	-0.006866	0.46951	-0.003815	-0.020447	0.027924	-0.002136	-0.012817
49.314	0.004883	-0.13382	-0.00473	0.002899	-0.020294	0.14313	0.055084	-0.013428	0.29984	0.015106	0.062866	0.005188	-0.29617	0.2565	-0.16037	-0.007019	-0.12604	-0.058289	0.02182	-0.008698	-0.072021	-0.10681	0.12878	-0.019226	-0.006866	-0.017242	-0.1532	-0.005646	0.24658	0.056	-0.001373	-0.009613
49.315	-0.004578	-0.10925	0.032654	0.014648	-0.04425	0.17319	0.13031	-0.013885	0.1149	0.028687	0.112	0.00061	-0.62439	0.10605	-0.1294	-0.007477	-0.1207	-0.01709	0.025482	-0.029144	-0.052643	-0.10071	0.26947	-0.041504	-0.022278	-0.008545	-0.45776	-0.004272	0.30899	0.10025	-0.004425	-0.004578
49.316	0.001526	-0.1033	0.12528	0.023499	-0.035706	0.04364	0.07843	-0.008545	-0.035706	0.008087	-0.14465	0.010529	-0.25559	-0.029755	0.002136	0.002441	-0.121	-0.043335	0.020142	0.017242	-0.07782	-0.066528	0.38177	-0.066071	-0.021057	-0.016937	-0.46478	-0.004883	-0.003967	0.027618	-0.000916	-0.013275
49.317	-0.002441	-0.1413	0.13382	0.033264	0.019836	-0.003815	0.075989	-0.001678	-0.074158	-0.035095	-0.39078	0.005035	0.16296	0.079651	0.42572	0.018768	-0.093689	-0.084076	0.026093	-0.065765	-0.090485	-0.071869	0.35584	-0.046844	-0.064087	-0.034332	-0.15381	-0.004578	-0.10544	-0.047455	0.000153	-0.01236
49.318	0.000916	-0.12802	0.11795	0.025482	0.05127	-0.11414	0.048218	-0.000763	-0.05127	-0.062866	-0.2829	0.004883	-0.18662	0.22964	-0.16861	0.013123	-0.10071	-0.11139	-0.011902	-0.12909	-0.042419	0	0.31128	-0.071259	-0.033264	-0.050812	0.32883	-0.00351	-0.049591	-0.039673	-0.002289	-0.012207
49.319	-0.003815	-0.12253	0.095673	0.039215	0.010223	-0.10223	0.031433	0.005493	-0.033722	-0.00946	-0.040741	0.003357	-0.14908	0.10681	-0.10895	0.00412	-0.059967	-0.096436	0.028839	-0.2211	-0.002594	0.029602	0.27527	-0.048523	-0.034943	-0.048828	0.84457	-0.00473	-0.027466	-0.041809	0.002136	-0.010681
49.32	-0.004578	-0.1326	0.075531	0.006561	-0.044556	-0.051727	0.03418	0.002899	-0.021973	-0.046387	0.022736	0.007782	0.016174	0.097809	-0.12833	0.012665	-0.027771	-0.10834	0.073853	-0.15289	-0.20065	-0.018311	0.26047	-0.11078	-0.031128	-0.021667	0.7901	-0.005951	0.2124	-0.11231	0.002747	-0.009155
49.321	-0.006256	-0.12772	0.034485	-0.009766	-0.046234	-0.049591	0.051727	0.0177	0.003052	-0.022125	-0.023804	0.007629	0.019073	-0.040131	-0.18265	0.007629	0.014343	-0.080109	0.13092	-0.081787	-0.10132	-0.017853	0.15015	-0.11093	-0.051575	0.058136	0.10727	-0.000458	0.19486	-0.10864	0.003815	0.002289
49.322	0.003357	-0.10284	0.016632	0.009308	-0.02655	-0.067139	0.06546	0.00946	0.005188	0.015717	-0.027924	0.005341	-0.41229	-0.005493	-0.069733	0.019226	0.034943	-0.046692	0.19898	-0.094299	0.14603	-0.012054	0.007172	-0.16174	-0.037537	0.034943	-0.43564	-0.01236	-0.18036	-0.083771	0.001526	-0.011292
